<svg width="131" height="23" viewBox="0 0 131 23" fill="none" xmlns="http://www.w3.org/2000/svg"><g clip-path="url(#clip0_236_3486)"><path d="M2.31815 0H0V23H2.31815V0ZM22.5949 9.3406C21.4534 8.24744 21.4569 6.47148 22.5949 5.38169L26.2267 1.90377H32.1907L24.2106 9.54577L25.612 10.8912L36.9815 0H16.6345L8.44719 7.84045V0H6.12905V23H8.44719V15.2739L16.5151 23H36.8515L22.5949 9.3406ZM12.4232 12.4317C12.3143 12.536 12.2124 12.647 12.1141 12.758C12.086 12.7882 12.0649 12.8185 12.0368 12.8522C11.9631 12.9396 11.8963 13.0304 11.8296 13.1212C11.8085 13.1515 11.7874 13.1818 11.7664 13.2121C11.6926 13.3197 11.6259 13.4273 11.5626 13.5417C11.5556 13.5551 11.5486 13.5686 11.5416 13.5787C11.3238 13.9756 11.1693 14.3994 11.0779 14.84C11.0779 14.8501 11.0744 14.8636 11.0709 14.8736C11.0569 14.9376 11.0428 14.9981 11.0323 15.062L9.43768 13.535C8.88624 13.0069 8.58066 12.3039 8.58066 11.5538C8.58066 10.8037 8.88624 10.1008 9.43768 9.57268L17.4564 1.90041H23.4203L12.4232 12.4317ZM17.3369 21.0996C17.3369 21.0996 13.6876 17.5981 13.6279 17.5241C13.6209 17.514 13.6139 17.5073 13.6068 17.4972C12.8201 16.5521 12.7639 15.2268 13.4453 14.2278C13.4453 14.2245 13.4523 14.2178 13.4558 14.211C13.5015 14.1471 13.5506 14.0832 13.5998 14.0227C13.6103 14.0092 13.6209 13.9958 13.6314 13.9823C13.6911 13.9117 13.7544 13.8444 13.8211 13.7805C13.8211 13.7805 13.8246 13.7738 13.8281 13.7738L15.4227 12.2467C15.4297 12.2938 15.4403 12.3409 15.4508 12.388C15.4614 12.4384 15.4684 12.4889 15.4789 12.5393C15.5 12.6402 15.5281 12.7378 15.5562 12.8353C15.5667 12.8723 15.5773 12.9127 15.5878 12.9497C15.6299 13.0842 15.6791 13.2154 15.7353 13.3432C15.7494 13.3735 15.7634 13.4004 15.7775 13.4307C15.8231 13.5316 15.8723 13.6291 15.925 13.7267C15.9496 13.7704 15.9742 13.8108 15.9987 13.8545C16.0479 13.9352 16.0971 14.0159 16.1498 14.0967C16.1779 14.1404 16.2095 14.1841 16.2376 14.2245C16.2938 14.3052 16.357 14.3826 16.4202 14.4599C16.4483 14.4936 16.4764 14.5306 16.508 14.5642C16.6029 14.6752 16.7047 14.7795 16.8101 14.8837L23.3044 21.103H17.3405L17.3369 21.0996ZM18.2115 13.5383C17.6601 13.0102 17.3545 12.3073 17.3545 11.5572C17.3545 10.8071 17.6601 10.1041 18.2115 9.57605L19.8096 8.04563C19.9572 9.01097 20.4173 9.93931 21.1935 10.6827L32.0642 21.0996H26.1073L18.2115 13.5383Z" fill="#FFFFFF"></path><path d="M48.8496 18.2474V4.01953H51.4171V9.70394H54.6766L59.9943 4.01953H62.7726V4.72251L56.9912 10.9417L62.2211 17.5444V18.2474H59.4253L54.6801 12.1795H51.4206V18.2474H48.8531H48.8496Z" fill="#FFFFFF"></path><path d="M64.1318 6.45811V4.01953H66.6607V6.45811H64.1318ZM64.1318 18.2474V7.53108H66.6607V18.2474H64.1318Z" fill="#FFFFFF"></path><path d="M68.4131 6.45811V4.01953H70.942V6.45811H68.4131ZM68.4131 18.2474V7.53108H70.942V18.2474H68.4131Z" fill="#FFFFFF"></path><path d="M75.4553 18.2473C74.9671 18.2473 74.521 18.1295 74.1136 17.8974C73.7097 17.662 73.383 17.3526 73.1407 16.9657C72.8948 16.5789 72.7754 16.1484 72.7754 15.6809V7.51415C72.7754 7.04661 72.8983 6.61944 73.1407 6.22927C73.3865 5.84246 73.7097 5.52965 74.1136 5.29756C74.5175 5.06211 74.9671 4.94775 75.4553 4.94775H86.6246V7.40651H75.9927C75.7855 7.40651 75.6239 7.46369 75.501 7.57133C75.378 7.68233 75.3183 7.84378 75.3183 8.05232V15.1461C75.3183 15.3445 75.378 15.4992 75.501 15.617C75.6239 15.7347 75.7855 15.7919 75.9927 15.7919H86.6246V18.2506H75.4553V18.2473Z" fill="#FFFFFF"></path><path d="M88.5957 18.2474V4.01953H91.1246V7.53108H97.2993C97.7875 7.53108 98.2301 7.64881 98.6305 7.88089C99.0309 8.11634 99.3505 8.42243 99.5964 8.80587C99.8422 9.18932 99.9617 9.61313 99.9617 10.0807V18.2474H97.4328V10.1748C97.4328 10.1143 97.4117 10.0605 97.366 10.0168C97.3204 9.97303 97.2677 9.95284 97.2009 9.95284H91.3564C91.2932 9.95284 91.237 9.97303 91.1913 10.0168C91.1457 10.0605 91.1246 10.1109 91.1246 10.1748V18.2474H88.5957Z" fill="#FFFFFF"></path><path d="M104.144 18.2475C103.656 18.2475 103.21 18.1298 102.803 17.8977C102.399 17.6623 102.076 17.3562 101.837 16.9728C101.598 16.5927 101.479 16.1655 101.479 15.698V11.6718H110.316V10.175C110.316 10.1145 110.295 10.0606 110.249 10.0169C110.203 9.97319 110.151 9.95301 110.084 9.95301H101.479V7.53125H110.179C110.667 7.53125 111.113 7.64897 111.52 7.88106C111.924 8.11651 112.247 8.42259 112.486 8.80604C112.725 9.18948 112.844 9.61329 112.844 10.0808V18.2475H104.144ZM104.243 15.8258H110.319V13.848H104.011V15.6038C104.011 15.6643 104.032 15.7181 104.078 15.7619C104.123 15.8056 104.176 15.8258 104.243 15.8258Z" fill="#FFFFFF"></path><path d="M114.871 6.45811V4.01953H117.4V6.45811H114.871ZM114.871 18.2474V7.53108H117.4V18.2474H114.871Z" fill="#FFFFFF"></path><path d="M119.638 18.2475V7.53125H128.338C128.826 7.53125 129.272 7.64897 129.679 7.88106C130.083 8.11651 130.407 8.42259 130.645 8.80604C130.884 9.18948 131.004 9.61329 131.004 10.0808V18.2475H128.475V10.175C128.475 10.1145 128.454 10.0606 128.408 10.0169C128.362 9.97319 128.31 9.95301 128.243 9.95301H122.398C122.335 9.95301 122.279 9.97319 122.233 10.0169C122.188 10.0606 122.167 10.1111 122.167 10.175V18.2475H119.638Z" fill="#FFFFFF"></path></g><defs><clipPath id="clip0_236_3486"><rect width="131" height="23" fill="white"></rect></clipPath></defs></svg>