<svg width="16" height="16" viewBox="0 0 16 16" fill="none" xmlns="http://www.w3.org/2000/svg" style="color: rgb(243, 245, 251);"><path d="M12.381 8.90269C12.381 9.11889 12.314 9.33025 12.1884 9.51002C12.0629 9.68979 11.8844 9.8299 11.6756 9.91264C11.4668 9.99538 11.237 10.017 11.0153 9.97485C10.7936 9.93267 10.59 9.82855 10.4302 9.67567C10.2704 9.52279 10.1615 9.32801 10.1174 9.11595C10.0733 8.9039 10.096 8.6841 10.1825 8.48435C10.269 8.2846 10.4154 8.11387 10.6034 7.99375C10.7913 7.87363 11.0122 7.80952 11.2383 7.80952C11.5413 7.80952 11.832 7.92469 12.0463 8.1297C12.2606 8.33471 12.381 8.61276 12.381 8.90269ZM15.238 6.44306V11.9089C15.238 12.4887 14.9972 13.0449 14.5686 13.4549C14.1399 13.8649 13.5586 14.0952 12.9524 14.0952H2.66737C2.0612 14.0952 1.47986 13.8649 1.05123 13.4549C0.622604 13.0449 0.381804 12.4887 0.381804 11.9089V3.773C0.373014 3.48064 0.425636 3.18956 0.536554 2.91701C0.647472 2.64445 0.814432 2.39595 1.02755 2.18623C1.24067 1.9765 1.49561 1.80981 1.77728 1.69603C2.05895 1.58225 2.36162 1.52368 2.66737 1.5238H12.0953C12.3227 1.5238 12.5407 1.61018 12.7014 1.76394C12.8621 1.9177 12.9524 2.12624 12.9524 2.34368C12.9524 2.56112 12.8621 2.76966 12.7014 2.92342C12.5407 3.07718 12.3227 3.16356 12.0953 3.16356H2.66737C2.59075 3.16352 2.5149 3.17822 2.44433 3.20679C2.37377 3.23537 2.30994 3.27722 2.25663 3.32987C2.20332 3.38253 2.16163 3.4449 2.13403 3.51328C2.10643 3.58165 2.09349 3.65464 2.09598 3.7279V3.73337C2.10798 3.87809 2.17741 4.01293 2.29003 4.11025C2.40265 4.20756 2.54993 4.25997 2.70166 4.25672H12.9524C13.5586 4.25672 14.1399 4.48707 14.5686 4.89709C14.9972 5.3071 15.238 5.86321 15.238 6.44306ZM13.5238 6.44306C13.5238 6.2981 13.4636 6.15907 13.3565 6.05657C13.2493 5.95406 13.104 5.89647 12.9524 5.89647H2.70166C2.49731 5.89657 2.29378 5.87178 2.09598 5.82269V11.9089C2.09598 12.0539 2.15618 12.1929 2.26334 12.2954C2.37049 12.3979 2.51583 12.4555 2.66737 12.4555H12.9524C13.104 12.4555 13.2493 12.3979 13.3565 12.2954C13.4636 12.1929 13.5238 12.0539 13.5238 11.9089V6.44306Z" fill="#D2AAFA"></path></svg>